<svg xmlns="http://www.w3.org/2000/svg" viewBox="0 0 40 40"><path fill="#dff0fe" d="M16.5 17.5H30.5V29.5H16.5z"/><path fill="#4788c7" d="M30,18v11H17V18H30 M31,17H16v13h15V17L31,17z"/><path fill="#fff" d="M20,36.441l-2,1l-2-1l-2,1l-2-1l-2,1l-2-1l-2,1l-2-1l-1.5,0.75V15.272 C2.5,3.454,9.671,2.53,9.976,2.497L30.179,2.5C28.842,5.112,24.5,13.844,24.5,17v19.793l-0.401-0.401L22,37.441L20,36.441z"/><path fill="#4788c7" d="M29.362,3C27.687,6.315,24,13.96,24,17v18.882l-0.447,0.224L22,36.882l-1.552-0.776L20,35.882 l-0.447,0.224L18,36.882l-1.553-0.776L16,35.882l-0.447,0.224L14,36.882l-1.553-0.776L12,35.882l-0.447,0.224L10,36.882 l-1.553-0.776L8,35.882l-0.447,0.224L6,36.882l-1.553-0.776l-0.447-0.224l-0.447,0.224L3,36.382V15.273 C3,4.273,9.361,3.089,9.986,3H29.362 M31,2H9.923C9.923,2,2,2.818,2,15.273V38l2-1L6,38l2-1l2,1l2-1l2,1l2-1l2,1l2-1L22,38l2-1l1,1 c0,0,0-17.43,0-21S31,2,31,2L31,2z"/><path fill="#4788c7" d="M4.5 18A.5.5 0 1 0 4.5 19 .5.5 0 1 0 4.5 18zM6.5 18A.5.5 0 1 0 6.5 19 .5.5 0 1 0 6.5 18zM8.5 18A.5.5 0 1 0 8.5 19 .5.5 0 1 0 8.5 18zM10.5 18A.5.5 0 1 0 10.5 19 .5.5 0 1 0 10.5 18zM12.5 18A.5.5 0 1 0 12.5 19 .5.5 0 1 0 12.5 18zM14.5 18A.5.5 0 1 0 14.5 19 .5.5 0 1 0 14.5 18zM16.5 18A.5.5 0 1 0 16.5 19 .5.5 0 1 0 16.5 18zM18.5 18A.5.5 0 1 0 18.5 19 .5.5 0 1 0 18.5 18zM20.5 18A.5.5 0 1 0 20.5 19 .5.5 0 1 0 20.5 18zM22.5 18A.5.5 0 1 0 22.5 19 .5.5 0 1 0 22.5 18z"/><g><path fill="#dff0fe" d="M31,29.5c-3.523,0-6.5-6.183-6.5-13.5S27.477,2.5,31,2.5s6.5,6.183,6.5,13.5S34.523,29.5,31,29.5z"/><path fill="#4788c7" d="M31,3c2.898,0,6,5.224,6,13s-3.102,13-6,13s-6-5.224-6-13S28.102,3,31,3 M31,2 c-3.866,0-7,6.268-7,14s3.134,14,7,14s7-6.268,7-14S34.866,2,31,2L31,2z"/></g><g><path fill="#98ccfd" d="M31.5 11A2.5 5 0 1 0 31.5 21A2.5 5 0 1 0 31.5 11Z"/></g></svg>